<?xml version="1.0" encoding="UTF-8"?>
<svg id="Layer_1" xmlns="http://www.w3.org/2000/svg" version="1.1" viewBox="0 0 3138 3169">
  <!-- Generator: Adobe Illustrator 29.5.1, SVG Export Plug-In . SVG Version: 2.1.0 Build 141)  -->
  <defs>
    <style>
      .st0 {
        fill: #fff;
      }
    </style>
  </defs>
  <path d="M1612.37,0c2.08,3.31,7.59,2,10.97,2.03,443.21,4.63,879.23,234.51,1156.83,572.83,204.52,249.26,351.95,604.14,355.97,929.69.04,3.38-1.28,8.88,2.03,10.97v135.96c-3.31,2.08-2,7.59-2.03,10.97-1.97,187.54-59.09,403.7-135.6,574.2-245.24,546.55-791.97,922.81-1397.21,930.32-3.38.04-8.89-1.28-10.97,2.03h-43.99c-2.08-3.31-7.59-2-10.97-2.03C701.99,3158.08,46.41,2475.3,4.55,1654.5c-.4-7.77-2.01-19.44-3.98-27.01.92-29.22-1.24-58.78,0-87.97C36.03,702.04,681.49,26.62,1528.38,0h83.99ZM1497.97,78.56C749.68,108.08,130.33,706.71,66.58,1450.55c-72.92,850.67,570.55,1593.55,1422.73,1638.56,801.81,42.34,1501.45-559.06,1578.88-1356.66C3157.47,812.6,2417.53,42.29,1497.97,78.56Z"/>
  <path class="st0" d="M1497.97,78.56c919.55-36.28,1659.5,734.04,1570.21,1653.88-77.42,797.6-777.06,1399.01-1578.88,1356.66C637.13,3044.1-6.34,2301.22,66.58,1450.55,130.33,706.71,749.68,108.08,1497.97,78.56ZM1529.97,94.56C644.82,119.03-23.86,900.07,90.85,1780.15c88.06,675.65,638.04,1213.99,1316.57,1284.86,953.38,99.57,1750.9-703.21,1640.53-1656.21C2959.85,648.16,2297.13,73.35,1529.97,94.56Z"/>
  <path d="M1529.97,94.56c767.16-21.21,1429.88,553.6,1517.97,1314.25,110.37,953-687.15,1755.79-1640.53,1656.21-678.52-70.87-1228.51-609.21-1316.57-1284.86C-23.86,900.07,644.82,119.03,1529.97,94.56ZM1570.37,387.89c-3.23-2.81-37.48,14.35-43.33,17.64-24.95,14.02-62.25,41.66-50.12,74.78,2.87,7.84,6.29,10.15,14.64,11.34,51.47,7.32,70.96-65.72,78.81-103.76ZM1604.38,387.89c4.04,32.23,24.49,97.19,61.45,103.48,27.25,4.64,36.09-5.58,32.34-32.34-4.36-31.2-64.82-64.97-93.8-71.14ZM1336.43,403.88c-13.76,26.15-38.06,64.17-22.82,93.76,5.98,11.61,11.65,16.06,24.18,10.57,40.23-17.63,18.29-78.51-1.36-104.33ZM1834.37,403.88c-17.03,34.28-41.51,94.98,12.71,107.56,36.15-25.06,9.04-81.44-12.71-107.56ZM1402.42,461.86c-22.67,42.46-39.01,103.25,24.73,115.5,44.89-34.81,9.25-88.4-24.73-115.5ZM1769.35,461.89c-31.97,29.03-65.92,79.47-23.59,115.63,63.77-9.7,51.31-75.82,23.59-115.63ZM1138.43,469.87c-27.92,7.69-65.25,31.36-68.07,62.88-1.5,16.69-.71,34.87,9.21,48.94,11.25,15.97,24.82,18.14,41.54,7.8,41.11-25.43-9.07-84.49,17.32-119.62ZM2036.34,469.85c2.98,9.74,8.1,20.56,8.14,31,.09,26.46-23.17,66.42,5.18,86.63,24.26,17.29,44.17,4.87,52.1-21.22,15.07-49.61-21.92-83.11-65.41-96.41ZM1516.38,1335.58h141.98c-3.06-67.55-3.3-149.69,24.28-212.65,34.86-79.56,131.12-94.6,202.18-123.76,51.26-21.03,68.45-69.28,103.56-106.4,10.25-10.84,13.45-10.86,27.56-14.43,78.85-19.92,129.25-15.73,202.18-61.77,47.63-30.07,91.39-66.53,142.14-91.81-19.46,1.96-38.93,12.78-56.03,21.96-41.26,22.15-89.45,64.33-132.42,77.54-37.04,11.38-116.41,19.7-154.51,15.48-34.1-3.78-5.79-27.02,6.98-39.02,12.37-11.64,22.44-13.99,30.41-31.58,18.9-41.71,20.03-101.27,42.11-143.84l24.51-59.47c-13.09,18.21-23.28,38.89-32.72,59.25-13.53,29.17-40.56,112.45-59.3,130.65-13,12.63-48.25,27.03-55.9,38.08-8.61,12.44-10.58,41.63-14.82,57.16-27.43,100.62-115.86,104.38-195.58,140.35-32.08,14.47-58.48,34.85-95.9,38.08-24.52,2.12-29.75,1.27-36.8-22.68-8.38-28.48-9.55-112.83,2.53-139.55,3.91-8.66,17.82-22.89,23.97-32.01,39.58-58.68,52.09-102.05,80.62-163.32,19.36-41.58,63.55-53.42,95.86-82.1,30.15-26.76,50.12-67.6,52.05-107.93-14.77,51.76-52.48,79.82-97.65,104.33-12.36,6.71-32.31,18.42-46.35,15.66-8.24-1.62-23.06-41.66-28.64-51.34-14.04-24.39-33.79-45.71-64.33-44.62l20.99,11.98c79.91,60.58,21.51,254.45-69.6,282.29-21.27,6.5-38.95-4.47-56.05-16.71-65.13-46.62-112.23-205.85-43.16-262.41l23.82-15.14c-24.93-1.07-44.49,16.01-57.6,35.35-7.5,11.06-25.9,57.83-33.79,60.18-13.47,4.01-37.94-10.53-49.93-17.23-30.72-17.16-64.84-38.88-80.98-70.99l-13.64-29.32c3.32,43.05,24.22,82.43,57.03,109.9,20.99,17.57,50.19,30.12,69.87,48.11,25.28,23.12,37.59,76.89,52.71,109.25,10.76,23.05,24.76,47.97,38.73,69.25,8.43,12.84,28.6,34.61,34.05,45.93,13.02,27.04,11.45,113.79,2.13,142.95-7.4,23.13-13.82,22.45-37.31,20.19-36.62-3.52-62.58-23.48-94.2-37.77-79.11-35.77-168.66-40.39-196.02-139.91-4.1-14.92-6.67-47.45-15.26-58.72-11.24-14.74-52.76-26.19-63.38-46.59-28.84-60.56-47.46-126.77-85.33-182.6l37.04,92.92c14.18,34.13,15.87,82.02,31.58,114.38,11.33,23.35,46.58,34.04,53.04,59.12.47,1.83,1.77,3.02-.56,4.46-8.76,7.43-55.58,5.68-69.08,5-46.14-2.32-97.34-9.42-137.62-32.35-49.47-28.16-94.88-69.33-151.36-83.57,17.51,12.52,36.87,22.34,55.03,33.93,35.1,22.39,69.53,50.13,105.12,70.85,58.72,34.18,120.67,33.78,184.22,49.74,17.09,4.29,19.98,7.54,31.53,20.46,35.19,39.35,51.07,82.82,105.01,102.94,68.97,25.73,160.48,45.03,194.72,119.22,30.48,66.05,25.74,143.71,26.28,214.65ZM1577.89,534.36c-78.64,10.34-88.26,168.64-18.92,205.82,53.78,28.83,93.36-37.1,97.37-83.42,4.04-46.71-17.59-130.41-78.45-122.4ZM1200.42,553.85c18.87,49.63,68.29,86.95,121.13,58.04-13.89-55.66-70.99-67.26-121.13-58.04ZM1972.33,553.84c-49.76-9.76-108.3,4.12-119.97,59.93,53.67,23.69,103.18-7.92,119.97-59.93ZM1176.39,569.84l-4.13,1.24c-24.87,39.15-62.92,110.8-26.85,152.72,12.12,14.08,17.61,11.44,33.09,3.04,57.92-31.42,21.94-114.1-2.11-157ZM1999.32,569.86c-33.43,49.49-64.56,143.24,16,165.11,55.99-39.17,15.23-122.02-16-165.11ZM1060.05,629.42c.49-15.89-6.62-35.09-21.49-42.73-27.16-13.95-68.52,8.9-94.09-14.87,1.76,63.43,63.52,97.17,115.58,57.6ZM2230.27,571.82c-26.87,23.24-66.63,1.3-94.43,14.54-15.11,7.2-22.82,25.96-21.22,42.11,50.82,42.84,112.53,4.84,115.64-56.65ZM1345.95,622.36c-40.97.82-76.25,57.11-50.54,93.37,15.49-29.54,61.65-25.63,76.69-51.24,12.35-21.04-1.81-42.62-26.15-42.13ZM1880.31,715.77c12.43-30.68,6.69-60.67-20.14-80.8-21.07-15.8-60.37-21.54-61.94,13.78-1.36,30.73,33.75,35,55.16,44.98l26.92,22.04ZM2268.27,623.81c-60.39,28.78-122.19,92.13-69.96,159.05,91.54-1.56,93.21-91.85,69.96-159.05ZM904.48,625.8c-21.68,66.56-19.93,154.77,70.09,156.86,35.61-41.46,21.05-89.77-16.08-123.9-6.3-5.79-48.72-37.54-54.01-32.96ZM1256.41,709.79c-34.79,9.27-68.71,44.41-44.01,80.98,16.96,5.15,38.1-11.2,40.02-28s-3.52-36.04,3.99-52.97ZM1918.34,709.79c10.61,24.01-7.23,53.12,13,71.95,9.55,8.88,26.64,16.84,33.99,2.02,17.59-35.5-15.99-64.01-46.99-73.97ZM1322.41,727.79c-3.61,4.28,26.08,40.63,31.2,45.76,24.99,25.03,55.05,39.23,90.16,26.57,28.32-10.21,31.13-21.19,12.57-45.31-29.9-38.86-90.71-36.3-133.94-27.02ZM1852.34,727.79c-53.82-12.41-134.13-9.84-147.71,56.58,55.81,50.88,122.09-1.6,147.71-56.58ZM1024.47,729.78c-6.97,25.38-15.4,75.17,13.96,88.96,7.58,3.56,10.65,4.82,15.7-2.32,15.89-22.45,1.47-51.45-12.85-70.5-2.16-2.87-14.19-18.08-16.81-16.15ZM2150.29,729.78c-3.1-2.79-18.7,17.16-20.81,20.16-15.38,22.01-24.86,49.04-5.82,71.93,43.19-7.26,33.95-60.48,26.62-92.1ZM678.5,785.76c18.11,38.6,62.94,51.2,102.95,47.94,34.59-2.82,83.07-24.24,52.07-64-34.43-44.16-74.04,1.03-109.02,11.06-14.98,4.29-30.45,5.74-45.99,5ZM2496.26,785.77c-13.17.19-27.19-.04-40.09-2.92-34.88-7.78-63.64-46.2-101.65-25.86-10.19,5.45-26.25,26.34-26.02,37.79.37,18.53,33.52,33.74,49.02,36.71,45.43,8.71,95.68-2.76,118.74-45.73ZM1305.42,773.8c-46.2,20.32-78.08,65.02-47.73,113.76,54.16-8.07,67.16-69.94,47.73-113.76ZM1918.15,887.55c25.71-48.44-2.28-97.72-51.75-111.76-15.59,46.15-3.89,105.23,51.75,111.76ZM1348.42,805.76c29.46,54.15-61.96,118.84,13.9,155.02,14.35,6.84,18.1,3.8,30.1-6.05,53.82-44.13,20.88-135.65-44.01-148.97ZM1824.33,805.75c-52.17,12.92-85.2,73.75-62.97,123.95,5.08,11.46,28.11,38.36,40.98,35.16,9.56-2.38,27.13-15.06,32.88-23.28,22.77-32.59-10.95-63.68-14.66-95.06-1.67-14.18.64-27.14,3.76-40.77ZM824.49,909.71c14.53-17.89,34.99-23.14,57-25.97,30.17-3.88,65.74,4.37,60.96-41.01-1.46-13.87-7.57-14.83-19.97-18.01-56.11-14.39-88.05,37.46-97.98,84.99ZM2350.26,909.71c-10.72-47.68-46.09-103.52-103.07-84.07-14.27,4.87-17.31,11.1-16.45,26.47,2.02,36.2,37.29,28.54,62.52,31.64,22.85,2.81,41.05,8.76,57,25.96ZM940.43,1005.67c12.63-54.63,108.5-32.91,106.14-96.97-.91-24.61-10.75-35.42-35.16-36.94-59.18-3.69-97.84,65.61-79.52,117.49l8.53,16.42ZM2236.26,1003.68c30.08-53.52-9.3-137.57-74.72-131.69-3.83.34-22.61,4.57-24.72,6.26-6.15,4.93-9.27,30.53-8.59,38.56,4.07,48.12,68.82,40.33,93.1,66.85,5.09,5.56,6.84,11.82,10.48,17.46,1.25,1.94-.21,3.58,4.45,2.56ZM774.47,873.73c-1.29-1.56-15.41,10.41-17.04,11.93-35.31,33.01-65.07,86.08-16.77,122.84,3.42,2.6,15.72,10.43,19.15,10.72,7.12.62,27.73-14.46,32.62-20.6,33.79-42.35-18.69-80.95-17.96-124.9ZM2398.28,873.73c3.49,45.18-52.54,81.55-16.05,124.99,18.38,21.88,32.92,25.53,54.99,6.91,36.04-30.39,20.83-71.94-5.01-102.86-2.9-3.47-30.63-32.75-33.93-29.04ZM1488.37,895.72c-7.06,7.44-9.9,15.76-17.96,23.01-19.62,17.67-49.31,19.22-45.79,53.74,2.2,21.59,15.84,27.27,35.17,19.61,32.93-13.04,32.35-66.95,28.58-96.37ZM1686.39,895.73c-4.81,27.85-5.03,81.74,25.49,95.44,22.27,10,38.31.15,38.05-24.48-.33-30.53-38.23-35.07-53.52-56.02l-10.03-14.93ZM1076.45,941.69c33.36,5.07,76.13,2.09,85.71-36.77-33.3-21.21-73.92,2.16-85.71,36.77ZM2096.31,941.69c-8.78-30.49-35.07-47.61-67-43.99-12.15,1.38-19.86,3.77-14.45,16.47,12.8,30.01,53.49,32.14,81.45,27.51ZM1072.44,1001.65c54.85,27.49,127.36,38.36,151.3-33.01-34.78-39.75-82.17-25.35-119.94,1.42-4.72,3.35-34.71,27.03-31.36,31.59ZM1993.83,944.23c-9.13,1.19-42.91,15.22-43.41,24.36-.33,6.01,10.83,23.84,15.08,28.92,34.66,41.56,96.71,25.78,136.77,1.17-25.22-27.19-69.33-59.55-108.44-54.46ZM871.49,945.77c-49.28,39.79-96.73,111.53-33.04,162.9,13.86,11.18,19.35,6.23,33.06-2.97,56.39-37.85,29.5-113.48-.03-159.93ZM2303.29,945.74c-33.31,47.44-57.66,130.03,5.67,164.24,15.95,8.61,17.08,7.19,30.38-4.28,58.66-50.54,9.45-121.69-36.05-159.97ZM554.51,955.72c13.97,26.27,48.31,36.98,73.99,20.93-14.23-27.96-46.94-29.35-73.99-20.93ZM2620.24,955.72c-28.23-8.3-60.77-6.83-75.98,21.94,28,13.19,60.31,5.11,75.98-21.94ZM1165.43,1335.58h84.99l-25.03-25.96c-33.09-38.66-80.23-111.1-129.35-126.59-71.5-22.54-177.56,13.96-239.04-26.92-53.82-35.8-126.25-161.35-189.49-166.46-2.28-.18-4.39-.32-2.04,2.06,4.49,4.54,18.3,11.25,25.04,16.96,51.62,43.71,125.73,169.41,174.57,191.35,44.54,20.01,121.9,18.36,173,30.97,60.58,14.96,95.24,53.52,127.35,104.6ZM1924.33,1335.58h85.99c19.21-36.13,54.52-77.48,92.63-94.33,69.76-30.83,181.88-11.15,235.41-62.54,49.47-47.49,85.26-117.93,137.87-164.06l33-24.99c-42.11,6.8-75.93,43.96-103.99,73.97-37.2,39.79-71.38,98.09-128.89,109.06-76.56,14.61-173.97-20.73-238.06,33.9-42.91,36.57-73.89,89.35-113.96,128.98ZM512.53,1039.67c23.99,67.97,135.44,70.54,171.54,12.69-13.36-36.9-35.3-52.57-74.09-38.2-31.16,11.54-60.48,36.33-97.45,25.51ZM2662.24,1041.69c-16.7.44-33.86-.5-50.04-4.98-38.76-10.73-82.14-57.42-114.28-2.38-9.84,16.85-10.57,20.62,4.32,34.35,43.19,39.83,135.31,31.59,160-26.99ZM1186.44,1061.63c6.76,2.29,11.48,7.76,17.95,11.07,41.81,21.4,85.54,6.42,93.57-41.78-12.45-16.79-31.43-25-51.97-18.67-24.68,7.6-33.96,37.46-58.34,45.28l-1.21,4.09ZM1988.32,1057.69c-34.98-10.37-43.67-61.22-89.36-44.38-20.79,7.67-27.21,15.54-17.62,36.35,20.51,44.53,77.15,39.71,106.98,8.03ZM1066.44,1046.67v41.99c0,4.52,3.95,23.09,5.32,28.67,7.95,32.45,28.67,60.39,64.66,61.4,43.19-56.59-16.81-110.69-65.34-134.77l-4.64,2.72ZM2106.3,1043.68c-4.09-4.39-49,30.09-54.01,34.95-29.82,28.94-40.9,64.21-15.65,100.74,67.14-5.07,74.33-82.77,69.65-135.69ZM1026.16,1157.34c23.19-34.81,6.99-78.46-23.69-102.68-2.01-1.59-2.57-3.86-6.01-2.96,12.24,25.59-13.18,58.11-7.57,82.54,2.6,11.31,25.19,25.95,37.28,23.11ZM2176.28,1051.67c-28.52,21.49-50.25,57.1-34.33,93.33,4.09,9.31,4.86,14.85,16.41,11.71,10.06-2.74,25.31-13.71,27.49-24.54,4.22-20.98-19.98-56.43-9.58-80.5ZM1405.96,1080.07c-55.14-35.69-103.24,13.45-121.55,63.55,54.82,18.44,125.89,8.63,121.55-63.55ZM1888.3,1143.58c-15.04-50.45-68.15-100.59-120.91-62.05-2.37,71.16,66.57,80.18,120.91,62.05ZM952.45,1069.68c-36.47,8.76-65.39,44.5-42.08,81.04,11.75-.92,29.46-8.3,34.56-19.6,6.04-13.37.43-24.75,1.75-38.25.4-4.12,6.65-22.38,5.77-23.18ZM2220.3,1069.68c9.72,16.11,4.06,34,6,50.97,2.27,19.82,19.83,28.78,38.11,30.13,20.93-38.36-5.56-73.09-44.11-81.1ZM604.5,1149.61c41.57,16.52,124.68,40.92,156.84-2.11,9.74-13.03,8.62-16.49-.91-28.81-37.21-48.07-104.72-14.03-141.73,16.16-2.8,2.28-16.42,11.73-14.2,14.76ZM2570.25,1149.61c-38.82-40.03-114.32-84.64-159.02-28.02-7.88,9.98-7.26,13.5.17,23.92,32.75,45.93,115.39,20.37,158.85,4.1ZM1192.44,1101.65c4.22,15.49,6.4,26.45,3.43,42.44-6.68,35.93-43.46,69.5-6.49,101.56,18.57,16.1,29.91,20.16,49.06,2.97,47.38-42.52,15.26-135.14-46-146.97ZM1982.31,1101.66c-64.11,11.33-94.29,107.04-44.01,148.97,13.54,11.29,17.02,12.62,32.67,4.63,65.05-33.21.11-86.55,5.58-134.4.81-7.06,4.2-12.59,5.76-19.2ZM472.53,1165.63c-9.03,37.14,5.26,76.61,46.04,83.11,13.86-35.3-9.82-75.85-46.04-83.11ZM2702.23,1165.62c-38.54,6.75-58.34,47.12-47.97,83.99,41.64-7.21,55.56-45.74,47.97-83.99ZM716.5,1261.6c16.5-18.31,32.72-23.81,57-25.97,23.96-2.13,57.08,5.71,60.55-29.61,1.51-15.4-3.12-20.85-16.19-26.79-53.92-24.5-93.95,36.3-101.35,82.36ZM2456.25,1259.6c-5.52-43.7-44.69-100.29-95.34-82.35-18.44,6.53-24.01,14.47-19.73,34.48,6.23,29.14,38.69,22.09,60.08,23.91,22.22,1.89,39.24,7.87,55,23.97ZM608.22,1335.3c14.74-36.96,11.25-78.36-15.78-108.62-3.41-3.82-18.53-18.19-22.69-16.95-2.42.72-10.93,18.36-12.22,21.9-14.24,39.12,1.91,74,27.39,103.51l23.3.15ZM2606.15,1209.7c-4.91-3.48-24.3,16.56-27.86,20.95-24.96,30.82-24.6,68.19-13.85,104.73.79.68,18.3.61,20.76.15,6.59-1.24,21.98-23.91,25.41-30.58,17.17-33.4,13.52-63.3-4.46-95.25ZM1394.39,1233.62c-36.54-4.61-111-8.96-128.98,31.98-6.41,14.61-9.02,32.25,5.14,42.85,32.67,24.47,76.53-14.02,97.91-37.8,3.12-3.47,28.5-34.82,25.93-37.03ZM1778.35,1233.63c21.31,33.62,73.99,98.82,119.33,78.3,15.69-7.1,16.22-15.14,14.73-31.42-5.11-55.93-94.09-52.8-134.06-46.88ZM869.47,1279.6h38c1.59,0,16.23-4.08,18.94-5.05,23.58-8.46,44.72-39.7,7.16-43.02-31.15-2.75-49.35,21.99-67.08,43.13l2.97,4.94ZM2265.29,1279.6c12.43,1.47,27.24-1.08,39.99,0l2.02-3.96c-16.61-23.8-40.72-49.97-73.13-43.13-25.81,5.44-11.11,29.26,4.24,37.97,5.86,3.33,20.45,8.36,26.87,9.13ZM960.47,1287.59c12.39,45.37,92.28,66.35,122.81,29.83,12.7-15.19,11.51-27.63-2.77-40.9-38.94-36.21-78.35,26.95-120.04,11.07ZM2214.28,1287.59c-42.14,16.49-77.64-45.3-118.01-13.04-13.79,11.01-18.65,21.68-9.24,37.32,26.62,44.28,112.6,22.48,127.25-24.28ZM550.51,1335.58c-17.02-51.74-69.5-78.12-121.99-61.97,2.28,18.6,13.65,35.47,27.98,47,2.73,2.2,21.65,14.97,23.02,14.97h70.99ZM2622.25,1335.58h70.99c1.17,0,15.07-8.68,17.63-10.37,16.75-11.09,33.46-30.35,33.14-51.39-52.99-17.6-102.14,12.28-121.76,61.75ZM1396.4,1335.58c-19.39-23.08-62.83-27.23-79.99,0h79.99ZM1858.34,1335.58c-19.8-27.8-60.14-22.8-81.99,0h81.99ZM1129.85,1330.15c-2.1-1.58-6.84-2.14-9.53-1.71-2.97.48-12.32,3.95-13.88,7.11h25.99c.24-.18-2.07-5.02-2.58-5.4ZM2066.31,1335.56c-4.15-6.08-20.19-10.7-23.98-2.95-.84,4.52,1.97,2.76,4.95,2.97,6.28.45,12.75-.3,19.03-.02ZM766.03,1408.11c-223.32,25.2-185.92,424.7,59.7,361.59,184.37-47.37,155.33-385.85-59.7-361.59ZM1801.9,1408.11c-127.44,13.47-176.54,157.46-135.07,265.9,54.15,141.59,255.59,133.54,303.56-9.46,40.87-121.84-23.24-271.79-168.5-256.44ZM236.54,1769.44h44.99l3-3v-135.96c5.77-4.63,17.77.69,25.02.98,79.66,3.21,155.27-35.06,148.93-124.91-7.77-110.11-143.23-100.51-221.94-89v351.89ZM1201.42,1413.55h-58.99l-23,355.89h42.99l16.01-297.9,98.93,293.95c2.3,3.09,35.33,3.24,38.06-.04,1.27-1.53,3.83-9.98,5.02-12.97,26.01-65.43,50.81-135.33,74-201.93,9.57-27.47,17.96-55.41,26.98-83.02l16.98,301.92h45.99l-22.87-354.02c-1.42-2.05-3.89-1.71-6.03-1.97-10.21-1.24-37.93-1.2-48.2-.01-2.87.33-5.27.19-6.72,3.28l-102.14,284.73c-24.46-98.39-62.04-192.96-97.01-287.9ZM2211.3,1413.55h-48.99v355.89h43.99l-2.98-291.93c3.71-.31,4.56,3.5,6.03,5.96,8.01,13.43,14.63,29.47,22.6,43.39,47.46,82.91,102.27,161.89,153.33,242.58h46.99v-352.89l-3-3h-39.99l.02,287.92c-15.04-31.47-32.08-61.97-50.18-91.81-35.55-58.61-75.48-121.26-113.98-177.94-4.28-6.3-7.96-13.08-13.83-18.16ZM2606.25,1769.44h46.99l101.97-307.91,102.01,307.91h48.99l-124.91-356.03c-15.03,2.16-35.9-2.46-50.08.14-2.23.41-3.83.97-4.82,3.17l-120.16,352.72ZM650.49,1989.33c22.36,10.74,68.64,8.26,67.27-24.66-1.25-30.15-48.42-25.23-49.48-44.28-1.03-18.46,27.8-18.33,39.23-11.23,16.86-17.16-16.56-17.15-27.85-15.58-27.01,3.74-38.04,32.22-12.56,48.2,11.23,7.04,36.34,9.33,35.38,26.46-1.11,19.6-34.74,17.01-46.86,9.19l-5.12,11.89ZM786.48,1955.38c22.45,2.22,55.78-5.9,53.58-34.41-2.44-31.5-45.1-28.86-67.57-25.57v97.97h14v-37.99ZM1084.33,1907.29c.69-.62,2.68-9.16.15-10.89-5.2-3.55-26.19-3.66-33.02-2.99-19.74,1.94-43.05,16.59-46.54,37.45-9.31,55.69,34.56,72.56,81.52,60.5l-2.02-12c-9.91,2.85-18.43,4.87-28.96,3.98-49.07-4.17-47.79-73.92-2.1-78.02,6.65-.6,29.81,3.01,30.97,1.98ZM1842.35,1897.43c-33.71-12.32-80.2.13-83.97,40.97-4.51,48.89,40.97,65.53,81.75,52.78,1.99-18.44-6.89-8.88-17-8.04-29.45,2.45-51.07-11.07-48.86-42.84,2.38-34.3,34.78-39.17,62.8-33.04l5.28-9.84ZM1925.85,1893.92c-57.57,8.37-53.64,104.29,11.39,101.47,68.74-2.98,65.42-112.64-11.39-101.47ZM954.45,1895.4h-59.99v97.97h61.99v-12h-47.99v-33.99h41.99v-12h-41.99c1.33-9.48-3.23-22.48,3-29.99h42.99v-10ZM1154.43,1895.4h-14v97.97h14v-97.97ZM1262.14,1895.67l-19.5-.03-36.22,97.71,15.73-.25,10.05-28.53,39.99-.95,10.55,29.42,15.66.33-36.26-97.69ZM1366.4,1895.4h-16v97.97h61.99v-12h-45.99v-85.97ZM1518.38,1895.4h-81.99v10h31l3,3v84.97h14v-87.97h34v-10ZM1594.37,1950.38v42.99h16v-42.99c0-4.34,37.13-52.11,33.99-54.97-5.42.5-12.79-1.81-17.01,1.96-4.97,4.45-15.56,29.75-20.58,37.41-1.38,2.11-2.11,5.11-5.37,4.63l-23.33-43.68-17.67.66,33.98,54ZM2098.31,1895.4h-57.99v97.98s14-.01,14-.01v-43.99h39c3.97,0,3.97-12,0-12h-39v-31.99h43.99v-10ZM2214.3,1895.4h-59.99v97.97h14v-43.99h41.99v-12h-41.99v-28.99l3-3h42.99v-10ZM2328.28,1895.4h-57.99v97.97h61.99v-12h-47.99v-33.99h41.99v-12h-41.99v-29.99h43.99v-10ZM2444.27,1895.4h-57.99v97.97h61.99l-3-12h-44.99v-33.99h41.99v-12h-41.99v-29.99h43.99v-10ZM2366.26,2323.27c-33.66,35.1-49.97,126.38-112.36,121.46-43.94-3.46-96.53-35.28-142.58-35.49-30.69-.14-66.42,18.66-95.97,15.96-26.44-2.41-115.84-58.23-142.83-75.11-25.89-16.2-52.21-33.08-76.79-51.19-29.16-21.48-45.65-31.14-60.3-65.67-24.69-58.2-34.52-122.23-50.94-182.99l-187.11-.9c-2.63.08-3.7.95-4.61,3.39-3.4,9.13-5.09,27.41-7.74,38.25-9.37,38.27-33.46,144.35-56.68,171.26-26.08,30.23-101.83,75.77-138.1,97.85-24.24,14.75-101.42,62.23-125.03,64.92-29.73,3.38-66.28-15.78-97.56-15.57-46.55.32-110.22,37.67-149.88,35.64-57.49-2.95-71.98-87.87-105.29-121.81,5.46,11.83,13.36,22.51,18.34,34.63,2.28,5.55,4.56,12.06,6.16,17.83,7.94,28.66,1.28,77.47,35.03,88.94,4.39,1.49,14.13,1.97,16.44,3.56,7.08,4.88-1.98,9.49-7.48,10.51-8.97,1.66-31.28-.58-41.26-1.76-37.01-4.41-74.41-17.23-104.27-39.71-2.5-.81-4,.5-2.95,2.95.81,1.89,24.42,26.72,27.95,30.05,28.02,26.34,43.74,29.51,81.3,34.68,35.96,4.94,91.16,11.13,125.26-.16,39.31-13.02,76.09-55.49,119.53-48.64,20.25,3.19,41.47,17.29,61.87,22.12,28.48,6.73,58.17-2.14,86.39-7.63,41.23-8.02,81.87-20.21,123.6-25.35-41.94,64.76-96.65,105.46-176.96,101.93-37.75-1.66-82.28-17.09-118.08-14.05-29.26,2.48-62.35,20.1-92.47,23.51-42.28,4.79-85.38-10.85-126.33-18.55-2.07-.39-6.55-2.64-6.08,1.09,26.35,11.79,50.67,28.42,77.26,39.73,53.55,22.77,96.37-9.3,148.25-15.16,58.92-6.65,97.71,36.98,155.4,35.42,19.22-.52,51.13-2.83,69.79-6.2,32.42-5.85,90.45-61.04,123.37-80.58,9.99-5.93,33.26-20.77,44.5-16.84,15.17,13.02-12.52,35.57-22.64,44.69-21.44,19.32-62.11,41.14-72.6,67.37-5.77,14.42-6.6,35.19-13.92,48.06-9.6,16.87-38.43,20.98-54.53,31.45-14.63,9.51-23.19,25.75-38.91,33.07-25.94,4.77-52.7,3.87-79.04,4.97-2.43.1-7.43-1.51-6.97,1.98,29.17-2.31,74.26,25.37,101.44,16.48,13.65-4.47,25.15-27.51,37.86-36.12,18.98-12.86,53.22-19.02,69.98-35.01,17.58-16.77,22.23-58.2,40.78-70.19,14.75-9.54,39.16-4.52,55.25-12.74l54.62-38.33c8.69,66.35-51.46,108.31-99.78,141.13-6.14,12.39-2.52,26.42-4.66,39.32-5.64,33.87-75.26,39.53-101.95,44.04-2.11.36-7.95.51-7.55,3.41,34.25-.01,70.73.05,104.39-6.56,11.02-2.16,23.58-4.21,32.58-11.42,18.83-15.1,8.95-44.03,20.99-60.99,8.05-11.33,37.31-25.43,50.91-22.98,14.59,2.63,18.9,46.65,19.17,58.87.54,24.44-4.47,50.21-22.07,68.09-.32,1.49,2.04,1.34,2.96.97,7.98-3.3,32.28-24.62,38.05-31.95,28.67-36.41,1.19-86.28,3.46-124.48.78-13.05,14.69-32.92,24.51-41.45,2.57,0,16.79,19.55,18.65,23.3,12.9,25.95-3.14,64.49-3.73,93.54-.8,39.37,17.69,62.79,52.08,79.04-1.9-5.34-6.55-8.93-9.11-13.86-11.61-22.33-12.48-52.28-8.68-76.89,5.51-35.67,15.97-44.51,50.22-26.62,38.11,19.91,15.63,52.48,36.5,73.47,11.57,11.63,49.39,16.26,66.08,17.9,6.67.66,72.98,4.67,72.99,1.02-27.56-6.71-103.14-11.21-109.54-46.45-2.11-11.61,2.14-28.79-4.69-39.3-3.66-5.64-42.26-29.72-51.8-38.18-29.56-26.22-53.77-61.73-47.95-102.99l54.63,38.33c16.08,8.22,40.5,3.2,55.25,12.74,15.31,9.91,23.13,44.25,33.7,60.28,17.74,26.88,54.51,28.84,78.26,45.72,12.11,8.61,23.51,31.02,36.66,35.33,27.33,8.94,71.98-18.52,101.44-16.48.47-3.49-4.54-1.88-6.97-1.98-20.08-.83-42.05-.13-61.98-2.03-33.27-3.18-32.14-20.55-54.35-35.63-13.62-9.25-34.93-12.2-47.66-22.33-15.92-12.67-15.35-42.6-23.44-60.53-14.01-31.02-72.31-56.22-93.56-86.4-8.96-12.73-8.44-26.2,10.55-22.53,37.28,7.2,98.13,68.76,133.16,88.79,21.07,12.05,107.03,18.3,130.18,11.61,33.17-9.58,61.41-30.9,99-32.97,46.84-2.58,102.78,32.49,149.18,23.19,19.9-3.99,44.31-22.95,63.91-30.07l31.94-19.02c-42.24,7.55-89.17,24.32-132.42,19.42-40.55-4.59-73.07-26.87-116.51-23.41-30.44,2.43-62.11,12.54-94.04,13.94-80.38,3.54-134.86-37.2-176.96-101.93,51.79,6.48,102.12,22.87,153.57,31.38,20.84,3.45,35.21,6.62,56.43,1.6,20.14-4.76,42.09-18.94,61.87-22.11,46.75-7.5,88.42,44.03,133.59,52.58,32.81,6.21,135.17-1.25,164.31-16.65,18.15-9.59,40.8-33.98,54.17-49.81,1.89-2.24,4.84-3.26,3.97-7.01-14.03,8.39-27.42,17.92-42.61,24.35-26.97,11.42-63.09,18.71-92.36,19.6-9.61.29-16.16.17-24.98-4,2.74-11.25,17.81-8.3,27.86-15.1,22.98-15.56,18.64-59.24,25.57-84.4,1.56-5.68,3.94-12.33,6.2-17.79,5.07-12.24,13.68-22.33,18.34-34.63Z"/>
  <path class="st0" d="M2366.26,2323.27c-4.66,12.3-13.27,22.39-18.34,34.63-2.26,5.46-4.64,12.11-6.2,17.79-6.93,25.16-2.58,68.84-25.57,84.4-10.04,6.8-25.11,3.85-27.86,15.1,8.82,4.17,15.37,4.29,24.98,4,29.27-.89,65.39-8.19,92.36-19.6,15.19-6.43,28.58-15.96,42.61-24.35.87,3.74-2.08,4.76-3.97,7.01-13.36,15.83-36.02,40.22-54.17,49.81-29.13,15.4-131.5,22.87-164.31,16.65-45.17-8.55-86.84-60.07-133.59-52.58-19.78,3.17-41.74,17.35-61.87,22.11-21.22,5.02-35.59,1.84-56.43-1.6-51.45-8.51-101.77-24.9-153.57-31.38,42.09,64.73,96.58,105.46,176.96,101.93,31.93-1.4,63.6-11.52,94.04-13.94,43.44-3.46,75.96,18.82,116.51,23.41,43.25,4.89,90.18-11.87,132.42-19.42l-31.94,19.02c-19.6,7.12-44.01,26.08-63.91,30.07-46.4,9.31-102.34-25.76-149.18-23.19-37.59,2.07-65.83,23.39-99,32.97-23.15,6.69-109.11.44-130.18-11.61-35.02-20.03-95.88-81.59-133.16-88.79-18.99-3.67-19.51,9.8-10.55,22.53,21.25,30.18,79.56,55.38,93.56,86.4,8.1,17.93,7.52,47.86,23.44,60.53,12.73,10.13,34.04,13.08,47.66,22.33,22.22,15.08,21.08,32.45,54.35,35.63,19.93,1.9,41.91,1.2,61.98,2.03,2.43.1,7.43-1.51,6.97,1.98-29.46-2.04-74.1,25.42-101.44,16.48-13.15-4.3-24.55-26.72-36.66-35.33-23.75-16.88-60.52-18.84-78.26-45.72-10.57-16.02-18.39-50.37-33.7-60.28-14.75-9.54-39.16-4.52-55.25-12.74l-54.63-38.33c-5.82,41.26,18.39,76.77,47.95,102.99,9.54,8.46,48.14,32.54,51.8,38.18,6.83,10.51,2.58,27.69,4.69,39.3,6.41,35.24,81.98,39.74,109.54,46.45,0,3.65-66.32-.37-72.99-1.02-16.69-1.64-54.52-6.27-66.08-17.9-20.87-20.99,1.61-53.56-36.5-73.47-34.25-17.89-44.71-9.05-50.22,26.62-3.8,24.61-2.93,54.56,8.68,76.89,2.56,4.93,7.21,8.52,9.11,13.86-34.38-16.24-52.88-39.67-52.08-79.04.59-29.05,16.64-67.59,3.73-93.54-1.86-3.75-16.08-23.3-18.65-23.3-9.82,8.53-23.74,28.4-24.51,41.45-2.27,38.2,25.21,88.07-3.46,124.48-5.77,7.33-30.07,28.65-38.05,31.95-.91.38-3.27.52-2.96-.97,17.6-17.88,22.62-43.65,22.07-68.09-.27-12.22-4.58-56.24-19.17-58.87-13.61-2.45-42.87,11.65-50.91,22.98-12.04,16.95-2.16,45.89-20.99,60.99-8.99,7.21-21.55,9.25-32.58,11.42-33.67,6.61-70.14,6.55-104.39,6.56-.4-2.9,5.44-3.05,7.55-3.41,26.69-4.51,96.31-10.17,101.95-44.04,2.15-12.9-1.48-26.94,4.66-39.32,48.32-32.82,108.48-74.78,99.78-141.13l-54.62,38.33c-16.08,8.22-40.5,3.2-55.25,12.74-18.54,11.99-23.2,53.42-40.78,70.19-16.75,15.99-51,22.15-69.98,35.01-12.72,8.61-24.21,31.66-37.86,36.12-27.18,8.89-72.27-18.78-101.44-16.48-.47-3.49,4.54-1.88,6.97-1.98,26.35-1.09,53.1-.19,79.04-4.97,15.72-7.33,24.28-23.56,38.91-33.07,16.1-10.47,44.93-14.58,54.53-31.45,7.33-12.87,8.16-33.64,13.92-48.06,10.49-26.22,51.16-48.05,72.6-67.37,10.12-9.12,37.81-31.66,22.64-44.69-11.23-3.94-34.51,10.91-44.5,16.84-32.93,19.55-90.95,74.74-123.37,80.58-18.67,3.37-50.57,5.68-69.79,6.2-57.7,1.56-96.49-42.06-155.4-35.42-51.88,5.85-94.7,37.92-148.25,15.16-26.59-11.31-50.91-27.94-77.26-39.73-.47-3.72,4.02-1.48,6.08-1.09,40.95,7.71,84.05,23.34,126.33,18.55,30.12-3.41,63.21-21.03,92.47-23.51,35.79-3.04,80.33,12.39,118.08,14.05,80.31,3.53,135.02-37.17,176.96-101.93-41.73,5.14-82.37,17.33-123.6,25.35-28.22,5.49-57.91,14.37-86.39,7.63-20.4-4.82-41.63-18.93-61.87-22.12-43.44-6.84-80.23,35.63-119.53,48.64-34.1,11.29-89.3,5.1-125.26.16-37.57-5.17-53.28-8.33-81.3-34.68-3.53-3.32-27.14-28.16-27.95-30.05-1.05-2.45.45-3.76,2.95-2.95,29.86,22.48,67.26,35.3,104.27,39.71,9.98,1.19,32.28,3.42,41.26,1.76,5.51-1.02,14.56-5.62,7.48-10.51-2.31-1.59-12.05-2.07-16.44-3.56-33.75-11.47-27.09-60.28-35.03-88.94-1.6-5.78-3.88-12.28-6.16-17.83-4.98-12.12-12.88-22.8-18.34-34.63,33.31,33.93,47.79,118.86,105.29,121.81,39.66,2.03,103.32-35.32,149.88-35.64,31.28-.21,67.83,18.95,97.56,15.57,23.62-2.68,100.8-50.16,125.03-64.92,36.27-22.08,112.03-67.62,138.1-97.85,23.21-26.91,47.31-132.99,56.68-171.26,2.65-10.83,4.34-29.12,7.74-38.25.91-2.44,1.98-3.31,4.61-3.39l187.11.9c16.42,60.77,26.25,124.8,50.94,182.99,14.65,34.53,31.14,44.2,60.3,65.67,24.58,18.11,50.9,34.99,76.79,51.19,26.99,16.88,116.39,72.71,142.83,75.11,29.56,2.69,65.28-16.11,95.97-15.96,46.05.22,98.64,32.03,142.58,35.49,62.39,4.92,78.7-86.36,112.36-121.46Z"/>
  <path class="st0" d="M1516.38,1335.58c-.54-70.93,4.2-148.59-26.28-214.65-34.24-74.19-125.75-93.49-194.72-119.22-53.94-20.12-69.82-63.59-105.01-102.94-11.55-12.92-14.44-16.17-31.53-20.46-63.54-15.96-125.5-15.56-184.22-49.74-35.59-20.72-70.02-48.46-105.12-70.85-18.17-11.59-37.52-21.4-55.03-33.93,56.48,14.24,101.89,55.41,151.36,83.57,40.28,22.93,91.48,30.03,137.62,32.35,13.5.68,60.32,2.43,69.08-5,2.33-1.44,1.03-2.63.56-4.46-6.46-25.08-41.71-35.77-53.04-59.12-15.71-32.37-17.4-80.25-31.58-114.38l-37.04-92.92c37.87,55.83,56.49,122.05,85.33,182.6,10.63,20.4,52.15,31.85,63.38,46.59,8.59,11.27,11.16,43.81,15.26,58.72,27.36,99.52,116.92,104.13,196.02,139.91,31.62,14.3,57.59,34.26,94.2,37.77,23.49,2.26,29.91,2.94,37.31-20.19,9.33-29.16,10.9-115.91-2.13-142.95-5.45-11.32-25.62-33.09-34.05-45.93-13.97-21.27-27.96-46.2-38.73-69.25-15.11-32.36-27.42-86.13-52.71-109.25-19.67-17.99-48.88-30.54-69.87-48.11-32.81-27.47-53.71-66.85-57.03-109.9l13.64,29.32c16.14,32.11,50.26,53.82,80.98,70.99,11.99,6.7,36.46,21.24,49.93,17.23,7.89-2.35,26.29-49.12,33.79-60.18,13.11-19.34,32.68-36.42,57.6-35.35l-23.82,15.14c-69.06,56.56-21.96,215.79,43.16,262.41,17.1,12.24,34.78,23.21,56.05,16.71,91.11-27.84,149.51-221.7,69.6-282.29l-20.99-11.98c30.54-1.09,50.28,20.24,64.33,44.62,5.57,9.68,20.4,49.72,28.64,51.34,14.05,2.75,33.99-8.95,46.35-15.66,45.16-24.51,82.87-52.57,97.65-104.33-1.93,40.33-21.9,81.17-52.05,107.93-32.31,28.68-76.51,40.52-95.86,82.1-28.53,61.27-41.03,104.64-80.62,163.32-6.16,9.13-20.06,23.36-23.97,32.01-12.08,26.72-10.9,111.07-2.53,139.55,7.04,23.95,12.28,24.79,36.8,22.68,37.42-3.23,63.82-23.6,95.9-38.08,79.72-35.97,168.15-39.74,195.58-140.35,4.24-15.53,6.21-44.72,14.82-57.16,7.65-11.06,42.89-25.45,55.9-38.08,18.74-18.21,45.77-101.49,59.3-130.65,9.44-20.36,19.63-41.04,32.72-59.25l-24.51,59.47c-22.08,42.57-23.21,102.13-42.11,143.84-7.97,17.59-18.03,19.94-30.41,31.58-12.76,12.01-41.08,35.25-6.98,39.02,38.09,4.22,117.46-4.1,154.51-15.48,42.98-13.21,91.16-55.39,132.42-77.54,17.09-9.18,36.56-20,56.03-21.96-50.75,25.29-94.51,61.74-142.14,91.81-72.93,46.05-123.33,41.86-202.18,61.77-14.12,3.57-17.31,3.59-27.56,14.43-35.1,37.12-52.3,85.37-103.56,106.4-71.06,29.15-167.32,44.19-202.18,123.76-27.58,62.95-27.35,145.1-24.28,212.65h-141.98Z"/>
  <path class="st0" d="M1201.42,1413.55c34.97,94.94,72.56,189.51,97.01,287.9l102.14-284.73c1.44-3.09,3.85-2.95,6.72-3.28,10.27-1.18,37.99-1.22,48.2.01,2.14.26,4.61-.08,6.03,1.97l22.87,354.02h-45.99l-16.98-301.92c-9.02,27.61-17.41,55.55-26.98,83.02-23.19,66.6-47.99,136.5-74,201.93-1.19,2.99-3.75,11.45-5.02,12.97-2.72,3.28-35.76,3.13-38.06.04l-98.93-293.95-16.01,297.9h-42.99l23-355.89h58.99Z"/>
  <path class="st0" d="M2211.3,1413.55c5.87,5.08,9.55,11.86,13.83,18.16,38.5,56.68,78.43,119.33,113.98,177.94,18.1,29.84,35.15,60.34,50.18,91.81l-.02-287.92h39.99l3,3v352.89h-46.99c-51.06-80.69-105.86-159.67-153.33-242.58-7.97-13.92-14.59-29.96-22.6-43.39-1.47-2.46-2.33-6.27-6.03-5.96l2.98,291.93h-43.99v-355.89h48.99Z"/>
  <path class="st0" d="M1801.9,1408.11c145.25-15.36,209.37,134.6,168.5,256.44-47.97,143-249.41,151.05-303.56,9.46-41.47-108.44,7.63-252.42,135.07-265.9ZM1799.87,1448.06c-122.96,16.63-128.61,254.64-11.5,284.37,182.78,46.39,194.42-309.11,11.5-284.37Z"/>
  <path class="st0" d="M766.03,1408.11c215.03-24.26,244.06,314.22,59.7,361.59-245.61,63.11-283.02-336.39-59.7-361.59ZM765.99,1448.06c-134.5,16.93-134.89,302.78,31.45,287.36,137.97-12.78,135.53-308.38-31.45-287.36Z"/>
  <path class="st0" d="M236.54,1769.44v-351.89c78.71-11.51,214.17-21.1,221.94,89,6.34,89.85-69.27,128.12-148.93,124.91-7.25-.29-19.24-5.61-25.02-.98v135.96l-3,3h-44.99ZM284.54,1589.5c53.41,10.69,122.96-.43,126.07-66.88,3.45-73.83-70.11-80.24-126.07-71.08v137.96Z"/>
  <path class="st0" d="M2606.25,1769.44l120.16-352.72c1-2.2,2.59-2.77,4.82-3.17,14.18-2.59,35.05,2.03,50.08-.14l124.91,356.03h-48.99l-102.01-307.91-101.97,307.91h-46.99Z"/>
  <path class="st0" d="M1165.43,1335.58c-32.11-51.08-66.77-89.65-127.35-104.6-51.1-12.61-128.46-10.97-173-30.97-48.84-21.94-122.95-147.63-174.57-191.35-6.75-5.71-20.55-12.42-25.04-16.96-2.35-2.38-.23-2.24,2.04-2.06,63.24,5.11,135.66,130.66,189.49,166.46,61.48,40.89,167.54,4.38,239.04,26.92,49.12,15.49,96.26,87.93,129.35,126.59l25.03,25.96h-84.99Z"/>
  <path class="st0" d="M1924.33,1335.58c40.08-39.64,71.05-92.41,113.96-128.98,64.09-54.62,161.51-19.29,238.06-33.9,57.5-10.97,91.69-69.27,128.89-109.06,28.06-30.02,61.88-67.17,103.99-73.97l-33,24.99c-52.61,46.13-88.41,116.56-137.87,164.06-53.53,51.39-165.65,31.71-235.41,62.54-38.11,16.84-73.42,58.19-92.63,94.33h-85.99Z"/>
  <path class="st0" d="M2303.29,945.74c45.5,38.28,94.71,109.43,36.05,159.97-13.3,11.46-14.43,12.89-30.38,4.28-63.33-34.21-38.98-116.8-5.67-164.24Z"/>
  <path class="st0" d="M2268.27,623.81c23.25,67.2,21.58,157.49-69.96,159.05-52.23-66.92,9.57-130.27,69.96-159.05Z"/>
  <path class="st0" d="M871.49,945.77c29.52,46.45,56.42,122.08.03,159.93-13.71,9.2-19.21,14.14-33.06,2.97-63.7-51.37-16.25-123.11,33.04-162.9Z"/>
  <path class="st0" d="M904.48,625.8c5.29-4.57,47.71,27.17,54.01,32.96,37.13,34.13,51.69,82.44,16.08,123.9-90.02-2.09-91.77-90.3-70.09-156.86Z"/>
  <path class="st0" d="M1577.89,534.36c60.86-8,82.49,75.7,78.45,122.4-4,46.32-43.59,112.25-97.37,83.42-69.34-37.17-59.72-195.48,18.92-205.82ZM1581.99,550.23c-8.01-4.7-26.34,10.6-31.56,16.64-31.29,36.19-31.73,111.77,0,147.86,2.39,2.72,18.82,18.14,15.56,6.45-2.08-7.43-6.38-13.98-7.39-22.62-5.56-47.55,33.49-63.31,36.86-102.16,1.43-16.43-5.1-32.44-13.47-46.17ZM1586.51,731.72c63.45-13.5,68.1-117.25,35.86-160.9-1.55-2.1-24.45-23.67-21.98-16.01,9.21,14.62,12.17,34.43,9.51,51.52-4.62,29.68-37.4,49.83-36.75,84.79.27,14.39,8.54,27.55,13.36,40.6Z"/>
  <path class="st0" d="M1824.33,805.75c-3.13,13.63-5.44,26.59-3.76,40.77,3.7,31.38,37.43,62.47,14.66,95.06-5.75,8.23-23.32,20.9-32.88,23.28-12.87,3.2-35.91-23.7-40.98-35.16-22.23-50.2,10.8-111.03,62.97-123.95Z"/>
  <path class="st0" d="M940.43,1005.67l-8.53-16.42c-18.33-51.88,20.34-121.18,79.52-117.49,24.41,1.52,34.25,12.33,35.16,36.94,2.36,64.06-93.51,42.34-106.14,96.97Z"/>
  <path class="st0" d="M2236.26,1003.68c-4.66,1.01-3.2-.62-4.45-2.56-3.64-5.65-5.38-11.9-10.48-17.46-24.29-26.52-89.03-18.73-93.1-66.85-.68-8.03,2.44-33.63,8.59-38.56,2.11-1.69,20.89-5.91,24.72-6.26,65.42-5.88,104.8,78.17,74.72,131.69Z"/>
  <path class="st0" d="M1348.42,805.76c64.89,13.32,97.82,104.84,44.01,148.97-12.01,9.85-15.75,12.89-30.1,6.05-75.86-36.18,15.56-100.86-13.9-155.02Z"/>
  <path class="st0" d="M2662.24,1041.69c-24.69,58.58-116.81,66.82-160,26.99-14.89-13.73-14.15-17.5-4.32-34.35,32.14-55.04,75.52-8.35,114.28,2.38,16.18,4.48,33.34,5.42,50.04,4.98Z"/>
  <path class="st0" d="M512.53,1039.67c36.97,10.82,66.29-13.97,97.45-25.51,38.79-14.36,60.73,1.3,74.09,38.2-36.1,57.85-147.55,55.28-171.54-12.69Z"/>
  <path class="st0" d="M1192.44,1101.65c61.26,11.83,93.38,104.45,46,146.97-19.15,17.18-30.49,13.13-49.06-2.97-36.96-32.06-.19-65.63,6.49-101.56,2.97-15.99.79-26.96-3.43-42.44Z"/>
  <path class="st0" d="M1982.31,1101.66c-1.55,6.61-4.95,12.14-5.76,19.2-5.47,47.84,59.47,101.19-5.58,134.4-15.66,7.99-19.13,6.66-32.67-4.63-50.28-41.93-20.1-137.64,44.01-148.97Z"/>
  <path class="st0" d="M2496.26,785.77c-23.06,42.97-73.32,54.44-118.74,45.73-15.49-2.97-48.64-18.17-49.02-36.71-.23-11.45,15.83-32.34,26.02-37.79,38.01-20.34,66.78,18.08,101.65,25.86,12.9,2.88,26.93,3.11,40.09,2.92Z"/>
  <path class="st0" d="M678.5,785.76c15.54.74,31.01-.71,45.99-5,34.99-10.02,74.59-55.22,109.02-11.06,31,39.76-17.48,61.18-52.07,64-40,3.26-84.83-9.34-102.95-47.94Z"/>
  <path class="st0" d="M1176.39,569.84c24.05,42.9,60.03,125.58,2.11,157-15.47,8.39-20.97,11.04-33.09-3.04-36.06-41.92,1.99-113.57,26.85-152.72l4.13-1.24Z"/>
  <path class="st0" d="M1999.32,569.86c31.23,43.09,71.99,125.94,16,165.11-80.56-21.87-49.43-115.62-16-165.11Z"/>
  <path class="st0" d="M604.5,1149.61c-2.22-3.03,11.4-12.48,14.2-14.76,37.01-30.18,104.52-64.23,141.73-16.16,9.53,12.32,10.65,15.77.91,28.81-32.16,43.03-115.26,18.63-156.84,2.11Z"/>
  <path class="st0" d="M2570.25,1149.61c-43.46,16.27-126.1,41.83-158.85-4.1-7.43-10.42-8.05-13.94-.17-23.92,44.7-56.62,120.2-12.01,159.02,28.02Z"/>
  <path class="st0" d="M2398.28,873.73c3.29-3.71,31.02,25.57,33.93,29.04,25.84,30.92,41.05,72.47,5.01,102.86-22.08,18.62-36.61,14.97-54.99-6.91-36.49-43.44,19.54-79.82,16.05-124.99Z"/>
  <path class="st0" d="M774.47,873.73c-.73,43.96,51.75,82.55,17.96,124.9-4.89,6.13-25.5,21.21-32.62,20.6-3.43-.3-15.73-8.12-19.15-10.72-48.3-36.76-18.53-89.83,16.77-122.84,1.63-1.53,15.75-13.49,17.04-11.93Z"/>
  <path class="st0" d="M1852.34,727.79c-25.62,54.98-91.9,107.46-147.71,56.58,13.59-66.42,93.89-68.99,147.71-56.58Z"/>
  <path class="st0" d="M1322.41,727.79c43.22-9.28,104.03-11.84,133.94,27.02,18.56,24.12,15.75,35.11-12.57,45.31-35.11,12.65-65.17-1.55-90.16-26.57-5.12-5.13-34.82-41.48-31.2-45.76Z"/>
  <path class="st0" d="M1993.83,944.23c39.1-5.09,83.22,27.27,108.44,54.46-40.06,24.61-102.12,40.39-136.77-1.17-4.24-5.09-15.4-22.92-15.08-28.92.5-9.14,34.28-23.17,43.41-24.36Z"/>
  <path class="st0" d="M1072.44,1001.65c-3.35-4.56,26.64-28.24,31.36-31.59,37.77-26.77,85.16-41.17,119.94-1.42-23.94,71.37-96.45,60.5-151.3,33.01Z"/>
  <path class="st0" d="M1394.39,1233.62c2.57,2.21-22.81,33.56-25.93,37.03-21.37,23.77-65.23,62.27-97.91,37.8-14.16-10.61-11.55-28.25-5.14-42.85,17.97-40.94,92.44-36.58,128.98-31.98Z"/>
  <path class="st0" d="M1778.35,1233.63c39.97-5.91,128.95-9.04,134.06,46.88,1.49,16.28.96,24.32-14.73,31.42-45.34,20.52-98.02-44.68-119.33-78.3Z"/>
  <path class="st0" d="M2106.3,1043.68c4.68,52.92-2.52,130.62-69.65,135.69-25.26-36.53-14.18-71.8,15.65-100.74,5.01-4.86,49.92-39.35,54.01-34.95Z"/>
  <path class="st0" d="M1066.44,1046.67l4.64-2.72c48.53,24.08,108.53,78.18,65.34,134.77-35.99-1.01-56.71-28.95-64.66-61.4-1.37-5.58-5.32-24.15-5.32-28.67v-41.99Z"/>
  <path class="st0" d="M1405.96,1080.07c4.34,72.18-66.73,81.99-121.55,63.55,18.31-50.09,66.41-99.24,121.55-63.55Z"/>
  <path class="st0" d="M1888.3,1143.58c-54.35,18.14-123.29,9.12-120.91-62.05,52.76-38.55,105.87,11.59,120.91,62.05Z"/>
  <path class="st0" d="M2036.34,469.85c43.49,13.3,80.48,46.8,65.41,96.41-7.92,26.09-27.83,38.51-52.1,21.22-28.35-20.2-5.09-60.17-5.18-86.63-.03-10.44-5.15-21.26-8.14-31Z"/>
  <path class="st0" d="M1138.43,469.87c-26.39,35.13,23.79,94.19-17.32,119.62-16.72,10.34-30.29,8.17-41.54-7.8-9.91-14.07-10.7-32.25-9.21-48.94,2.82-31.52,40.15-55.19,68.07-62.88Z"/>
  <path class="st0" d="M960.47,1287.59c41.69,15.87,81.1-47.28,120.04-11.07,14.28,13.27,15.46,25.71,2.77,40.9-30.52,36.51-110.41,15.54-122.81-29.83Z"/>
  <path class="st0" d="M2214.28,1287.59c-14.65,46.76-100.63,68.56-127.25,24.28-9.4-15.64-4.55-26.31,9.24-37.32,40.38-32.25,75.87,29.53,118.01,13.04Z"/>
  <path class="st0" d="M608.22,1335.3l-23.3-.15c-25.47-29.51-41.62-64.39-27.39-103.51,1.29-3.55,9.8-21.18,12.22-21.9,4.16-1.24,19.28,13.13,22.69,16.95,27.03,30.26,30.52,71.66,15.78,108.62Z"/>
  <path class="st0" d="M2606.15,1209.7c17.98,31.95,21.63,61.85,4.46,95.25-3.43,6.67-18.82,29.34-25.41,30.58-2.46.46-19.97.53-20.76-.15-10.75-36.54-11.11-73.91,13.85-104.73,3.56-4.39,22.94-24.44,27.86-20.95Z"/>
  <path class="st0" d="M2230.27,571.82c-3.12,61.48-64.83,99.49-115.64,56.65-1.61-16.15,6.11-34.91,21.22-42.11,27.79-13.24,67.56,8.7,94.43-14.54Z"/>
  <path class="st0" d="M1060.05,629.42c-52.06,39.57-113.82,5.83-115.58-57.6,25.57,23.78,66.93.93,94.09,14.87,14.87,7.63,21.98,26.84,21.49,42.73Z"/>
  <path class="st0" d="M1570.37,387.89c-7.85,38.05-27.34,111.08-78.81,103.76-8.35-1.19-11.77-3.5-14.64-11.34-12.14-33.12,25.16-60.76,50.12-74.78,5.85-3.29,40.1-20.45,43.33-17.64Z"/>
  <path class="st0" d="M1604.38,387.89c28.97,6.17,89.43,39.94,93.8,71.14,3.74,26.76-5.09,36.98-32.34,32.34-36.96-6.29-57.42-71.24-61.45-103.48Z"/>
  <path class="st0" d="M2350.26,909.71c-15.95-17.2-34.15-23.15-57-25.96-25.23-3.1-60.49,4.56-62.52-31.64-.86-15.37,2.19-21.6,16.45-26.47,56.97-19.45,92.34,36.39,103.07,84.07Z"/>
  <path class="st0" d="M824.49,909.71c9.93-47.53,41.88-99.38,97.98-84.99,12.4,3.18,18.51,4.14,19.97,18.01,4.79,45.38-30.79,37.13-60.96,41.01-22,2.83-42.46,8.07-57,25.97Z"/>
  <path class="st0" d="M1972.33,553.84c-16.79,52.01-66.3,83.62-119.97,59.93,11.66-55.8,70.21-69.69,119.97-59.93Z"/>
  <path class="st0" d="M1200.42,553.85c50.13-9.22,107.23,2.38,121.13,58.04-52.84,28.91-102.25-8.41-121.13-58.04Z"/>
  <path class="st0" d="M716.5,1261.6c7.4-46.06,47.43-106.86,101.35-82.36,13.07,5.94,17.7,11.39,16.19,26.79-3.47,35.32-36.59,27.47-60.55,29.61-24.27,2.16-40.5,7.66-57,25.97Z"/>
  <path class="st0" d="M2456.25,1259.6c-15.76-16.1-32.78-22.08-55-23.97-21.39-1.82-53.84,5.24-60.08-23.91-4.28-20.01,1.29-27.95,19.73-34.48,50.66-17.94,89.82,38.65,95.34,82.35Z"/>
  <path class="st0" d="M550.51,1335.58h-70.99c-1.37,0-20.29-12.77-23.02-14.97-14.33-11.53-25.7-28.4-27.98-47,52.49-16.15,104.97,10.23,121.99,61.97Z"/>
  <path class="st0" d="M2622.25,1335.58c19.62-49.47,68.77-79.36,121.76-61.75.32,21.04-16.4,40.29-33.14,51.39-2.55,1.69-16.45,10.37-17.63,10.37h-70.99Z"/>
  <path class="st0" d="M1769.35,461.89c27.73,39.81,40.18,105.93-23.59,115.63-42.33-36.15-8.39-86.6,23.59-115.63Z"/>
  <path class="st0" d="M1918.15,887.55c-55.64-6.53-67.34-65.61-51.75-111.76,49.47,14.04,77.46,63.31,51.75,111.76Z"/>
  <path class="st0" d="M1305.42,773.8c19.43,43.82,6.44,105.69-47.73,113.76-30.35-48.74,1.53-93.44,47.73-113.76Z"/>
  <path class="st0" d="M1186.44,1061.63l1.21-4.09c24.37-7.82,33.66-37.68,58.34-45.28,20.55-6.33,39.52,1.88,51.97,18.67-8.03,48.19-51.76,63.18-93.57,41.78-6.47-3.31-11.19-8.78-17.95-11.07Z"/>
  <path class="st0" d="M1988.32,1057.69c-29.83,31.69-86.47,36.51-106.98-8.03-9.59-20.82-3.17-28.69,17.62-36.35,45.69-16.84,54.38,34.01,89.36,44.38Z"/>
  <path class="st0" d="M1402.42,461.86c33.98,27.09,69.63,80.69,24.73,115.5-63.75-12.25-47.4-73.04-24.73-115.5Z"/>
  <path class="st0" d="M1880.31,715.77l-26.92-22.04c-21.42-9.98-56.53-14.25-55.16-44.98,1.57-35.32,40.88-29.59,61.94-13.78,26.83,20.13,32.57,50.12,20.14,80.8Z"/>
  <path class="st0" d="M1345.95,622.36c24.34-.49,38.5,21.09,26.15,42.13-15.04,25.61-61.21,21.7-76.69,51.24-25.71-36.26,9.57-92.55,50.54-93.37Z"/>
  <path class="st0" d="M1925.85,1893.92c76.81-11.17,80.13,98.48,11.39,101.47-65.04,2.82-68.97-93.1-11.39-101.47ZM1925.81,1905.87c-35.19,6.4-34.47,85.67,17.05,77.01,38.82-6.53,38.89-87.19-17.05-77.01Z"/>
  <path class="st0" d="M1488.37,895.72c3.78,29.42,4.35,83.33-28.58,96.37-19.33,7.65-32.97,1.97-35.17-19.61-3.52-34.52,26.17-36.08,45.79-53.74,8.06-7.25,10.89-15.58,17.96-23.01Z"/>
  <path class="st0" d="M1686.39,895.73l10.03,14.93c15.29,20.95,53.19,25.49,53.52,56.02.26,24.63-15.79,34.48-38.05,24.48-30.52-13.7-30.3-67.59-25.49-95.44Z"/>
  <path class="st0" d="M1336.43,403.88c19.65,25.83,41.59,86.71,1.36,104.33-12.53,5.49-18.2,1.04-24.18-10.57-15.24-29.59,9.06-67.62,22.82-93.76Z"/>
  <path class="st0" d="M1834.37,403.88c21.74,26.12,48.86,82.49,12.71,107.56-54.22-12.58-29.74-73.28-12.71-107.56Z"/>
  <path class="st0" d="M1026.16,1157.34c-12.09,2.84-34.68-11.8-37.28-23.11-5.61-24.43,19.81-56.94,7.57-82.54,3.44-.9,4,1.38,6.01,2.96,30.68,24.22,46.89,67.88,23.69,102.68Z"/>
  <path class="st0" d="M2176.28,1051.67c-10.4,24.07,13.8,59.53,9.58,80.5-2.18,10.83-17.43,21.8-27.49,24.54-11.55,3.14-12.32-2.41-16.41-11.71-15.91-36.22,5.81-71.83,34.33-93.33Z"/>
  <path class="st0" d="M1262.14,1895.67l36.26,97.69-15.66-.33-10.55-29.42-39.99.95-10.05,28.53-15.73.25,36.22-97.71,19.5.03ZM1266.42,1951.38c-2.98-11.83-7.38-25.67-12.17-36.81-.88-2.05-.57-4.87-3.81-5.17-1.41,14.67-8.63,28.44-14.02,41.99h30Z"/>
  <path class="st0" d="M954.45,1895.4v10h-42.99c-6.23,7.51-1.67,20.51-3,29.99h41.99v12h-41.99v33.99h47.99v12h-61.99v-97.97h59.99Z"/>
  <path class="st0" d="M786.48,1955.38v37.99h-14v-97.97c22.47-3.3,65.13-5.94,67.57,25.57,2.21,28.51-31.13,36.63-53.58,34.41ZM786.48,1943.39c14.95.73,38.19,1.21,38.18-18.99-.01-21.12-22.71-19.74-38.18-18.99v37.99Z"/>
  <polygon class="st0" points="2328.28 1895.4 2328.28 1905.4 2284.29 1905.4 2284.29 1935.39 2326.28 1935.39 2326.28 1947.39 2284.29 1947.39 2284.29 1981.37 2332.28 1981.37 2332.28 1993.37 2270.29 1993.37 2270.29 1895.4 2328.28 1895.4"/>
  <polygon class="st0" points="2444.27 1895.4 2444.27 1905.4 2400.27 1905.4 2400.27 1935.39 2442.27 1935.39 2442.27 1947.39 2400.27 1947.39 2400.27 1981.37 2445.27 1981.37 2448.27 1993.37 2386.27 1993.37 2386.27 1895.4 2444.27 1895.4"/>
  <path class="st0" d="M2702.23,1165.62c7.59,38.25-6.32,76.78-47.97,83.99-10.38-36.86,9.43-77.24,47.97-83.99Z"/>
  <path class="st0" d="M472.53,1165.63c36.22,7.26,59.9,47.81,46.04,83.11-40.78-6.5-55.07-45.98-46.04-83.11Z"/>
  <path class="st0" d="M1256.41,709.79c-7.51,16.93-2,35.55-3.99,52.97s-23.05,33.15-40.02,28c-24.7-36.56,9.21-71.7,44.01-80.98Z"/>
  <path class="st0" d="M1918.34,709.79c31,9.96,64.58,38.47,46.99,73.97-7.34,14.82-24.44,6.86-33.99-2.02-20.24-18.83-2.39-47.94-13-71.95Z"/>
  <path class="st0" d="M2265.29,1279.6c-6.42-.76-21.01-5.8-26.87-9.13-15.35-8.72-30.05-32.53-4.24-37.97,32.41-6.83,56.51,19.34,73.13,43.13l-2.02,3.96c-12.75-1.08-27.56,1.47-39.99,0Z"/>
  <path class="st0" d="M869.47,1279.6l-2.97-4.94c17.73-21.14,35.93-45.89,67.08-43.13,37.56,3.32,16.42,34.57-7.16,43.02-2.71.97-17.35,5.05-18.94,5.05h-38Z"/>
  <path class="st0" d="M650.49,1989.33l5.12-11.89c12.13,7.82,45.76,10.41,46.86-9.19.97-17.13-24.14-19.42-35.38-26.46-25.48-15.98-14.45-44.46,12.56-48.2,11.29-1.56,44.71-1.57,27.85,15.58-11.43-7.1-40.26-7.24-39.23,11.23,1.06,19.05,48.23,14.13,49.48,44.28,1.36,32.92-44.91,35.4-67.27,24.66Z"/>
  <path class="st0" d="M2150.29,729.78c7.33,31.62,16.57,84.84-26.62,92.1-19.04-22.9-9.56-49.92,5.82-71.93,2.1-3.01,17.71-22.95,20.81-20.16Z"/>
  <path class="st0" d="M1024.47,729.78c2.62-1.93,14.65,13.28,16.81,16.15,14.32,19.04,28.74,48.05,12.85,70.5-5.05,7.14-8.12,5.88-15.7,2.32-29.36-13.79-20.93-63.58-13.96-88.96Z"/>
  <path class="st0" d="M1842.35,1897.43l-5.28,9.84c-28.03-6.14-60.42-1.26-62.8,33.04-2.21,31.77,19.41,45.3,48.86,42.84,10.12-.84,18.99-10.4,17,8.04-40.78,12.75-86.27-3.9-81.75-52.78,3.77-40.84,50.26-53.29,83.97-40.97Z"/>
  <path class="st0" d="M2220.3,1069.68c38.55,8.01,65.04,42.74,44.11,81.1-18.29-1.35-35.85-10.31-38.11-30.13-1.94-16.96,3.72-34.86-6-50.97Z"/>
  <path class="st0" d="M1084.33,1907.29c-1.15,1.04-24.32-2.57-30.97-1.98-45.7,4.11-46.97,73.85,2.1,78.02,10.53.9,19.06-1.13,28.96-3.98l2.02,12c-46.96,12.06-90.83-4.8-81.52-60.5,3.49-20.85,26.79-35.51,46.54-37.45,6.83-.67,27.82-.57,33.02,2.99,2.52,1.73.53,10.27-.15,10.89Z"/>
  <path class="st0" d="M2096.31,941.69c-27.96,4.62-68.65,2.5-81.45-27.51-5.42-12.7,2.3-15.09,14.45-16.47,31.93-3.62,58.22,13.5,67,43.99Z"/>
  <path class="st0" d="M1076.45,941.69c11.79-34.61,52.41-57.98,85.71-36.77-9.59,38.86-52.36,41.84-85.71,36.77Z"/>
  <path class="st0" d="M952.45,1069.68c.88.81-5.37,19.06-5.77,23.18-1.32,13.51,4.28,24.88-1.75,38.25-5.1,11.3-22.81,18.69-34.56,19.6-23.31-36.53,5.61-72.28,42.08-81.04Z"/>
  <path class="st0" d="M2098.31,1895.4v10h-43.99v31.99h39c3.97,0,3.97,12,0,12h-39v43.99h-14.01s.01-97.97.01-97.97h57.99Z"/>
  <path class="st0" d="M1594.37,1950.38l-33.98-54,17.67-.66,23.33,43.68c3.27.48,3.99-2.52,5.37-4.63,5.02-7.66,15.61-32.96,20.58-37.41,4.22-3.78,11.6-1.46,17.01-1.96,3.14,2.86-33.99,50.64-33.99,54.97v42.99h-16v-42.99Z"/>
  <polygon class="st0" points="2214.3 1895.4 2214.3 1905.4 2171.3 1905.4 2168.3 1908.4 2168.3 1937.39 2210.3 1937.39 2210.3 1949.38 2168.3 1949.38 2168.3 1993.37 2154.3 1993.37 2154.3 1895.4 2214.3 1895.4"/>
  <polygon class="st0" points="1366.4 1895.4 1366.4 1981.37 1412.4 1981.37 1412.4 1993.37 1350.4 1993.37 1350.4 1895.4 1366.4 1895.4"/>
  <polygon class="st0" points="1518.38 1895.4 1518.38 1905.4 1484.39 1905.4 1484.39 1993.37 1470.39 1993.37 1470.39 1908.4 1467.39 1905.4 1436.39 1905.4 1436.39 1895.4 1518.38 1895.4"/>
  <path class="st0" d="M2620.24,955.72c-15.68,27.06-47.98,35.13-75.98,21.94,15.21-28.78,47.76-30.25,75.98-21.94Z"/>
  <path class="st0" d="M554.51,955.72c27.05-8.42,59.75-7.03,73.99,20.93-25.68,16.05-60.02,5.34-73.99-20.93Z"/>
  <rect class="st0" x="1140.43" y="1895.4" width="14" height="97.97"/>
  <path class="st0" d="M1858.34,1335.58h-81.99c21.85-22.8,62.19-27.8,81.99,0Z"/>
  <path class="st0" d="M1396.4,1335.58h-79.99c17.16-27.23,60.6-23.08,79.99,0Z"/>
  <path class="st0" d="M1129.85,1330.15c.51.38,2.82,5.23,2.58,5.4h-25.99c1.56-3.16,10.91-6.63,13.88-7.11,2.69-.43,7.43.13,9.53,1.71Z"/>
  <path class="st0" d="M2066.31,1335.56c-6.28-.28-12.75.47-19.03.02-2.98-.21-5.79,1.55-4.95-2.97,3.79-7.75,19.83-3.13,23.98,2.95Z"/>
  <path d="M1799.87,1448.06c182.93-24.74,171.28,330.77-11.5,284.37-117.12-29.73-111.47-267.74,11.5-284.37Z"/>
  <path d="M765.99,1448.06c166.98-21.01,169.42,274.58,31.45,287.36-166.35,15.41-165.95-270.44-31.45-287.36Z"/>
  <path d="M284.54,1589.5v-137.96c55.96-9.17,129.51-2.75,126.07,71.08-3.1,66.45-72.65,77.57-126.07,66.88Z"/>
  <path d="M1581.99,550.23c8.36,13.73,14.89,29.74,13.47,46.17-3.37,38.85-42.42,54.61-36.86,102.16,1.01,8.64,5.31,15.19,7.39,22.62,3.27,11.69-13.17-3.73-15.56-6.45-31.73-36.09-31.28-111.68,0-147.86,5.22-6.04,23.56-21.34,31.56-16.64Z"/>
  <path d="M1586.51,731.72c-4.82-13.05-13.09-26.21-13.36-40.6-.65-34.97,32.13-55.12,36.75-84.79,2.66-17.08-.29-36.9-9.51-51.52-2.47-7.66,20.43,13.91,21.98,16.01,32.24,43.64,27.59,147.4-35.86,160.9Z"/>
  <path d="M1925.81,1905.87c55.94-10.18,55.88,70.49,17.05,77.01-51.52,8.66-52.24-70.61-17.05-77.01Z"/>
  <path d="M1266.42,1951.38h-30c5.38-13.55,12.61-27.32,14.02-41.99,3.23.3,2.92,3.12,3.81,5.17,4.79,11.14,9.19,24.98,12.17,36.81Z"/>
  <path d="M786.48,1943.39v-37.99c15.47-.75,38.17-2.12,38.18,18.99.01,20.21-23.23,19.73-38.18,18.99Z"/>
</svg>